<svg id="visual" viewBox="0 0 540 960" width="540" height="960" xmlns="http://www.w3.org/2000/svg" xmlns:xlink="http://www.w3.org/1999/xlink" version="1.1">
  <g>
    <g transform="translate(236 93)">
      <path d="M0 -23.7L20.5 -11.8L20.5 11.8L0 23.7L-20.5 11.8L-20.5 -11.8Z" stroke="#297EA6" fill="none" stroke-width="0.3"></path>
    </g>
    <g transform="translate(26 30)">
      <path d="M0 -21L18.2 -10.5L18.2 10.5L0 21L-18.2 10.5L-18.2 -10.5Z" stroke="#297EA6" fill="none" stroke-width="0.3"></path>
    </g>
    <g transform="translate(397 27)">
      <path d="M0 -11L9.5 -5.5L9.5 5.5L0 11L-9.5 5.5L-9.5 -5.5Z" stroke="#297EA6" fill="none" stroke-width="0.3"></path>
    </g>
    <g transform="translate(238 749)">
      <path d="M0 -15L13 -7.5L13 7.5L0 15L-13 7.5L-13 -7.5Z" stroke="#297EA6" fill="none" stroke-width="0.3"></path>
    </g>
    <g transform="translate(325 179)">
      <path d="M0 -19L16.5 -9.5L16.5 9.5L0 19L-16.5 9.5L-16.5 -9.5Z" stroke="#297EA6" fill="none" stroke-width="0.3"></path>
    </g>
    <g transform="translate(76 328)">
      <path d="M0 -11L9.5 -5.5L9.5 5.5L0 11L-9.5 5.5L-9.5 -5.5Z" stroke="#297EA6" fill="none" stroke-width="0.3"></path>
    </g>
    <g transform="translate(278 451)">
      <path d="M0 -19L16.5 -9.5L16.5 9.5L0 19L-16.5 9.5L-16.5 -9.5Z" stroke="#297EA6" fill="none" stroke-width="0.3"></path>
    </g>
    <g transform="translate(380 558)">
      <path d="M0 -12L10.4 -6L10.4 6L0 12L-10.4 6L-10.4 -6Z" stroke="#297EA6" fill="none" stroke-width="0.3"></path>
    </g>
    <g transform="translate(474 719)">
      <path d="M0 -15L13 -7.5L13 7.5L0 15L-13 7.5L-13 -7.5Z" stroke="#297EA6" fill="none" stroke-width="0.3"></path>
    </g>
    <g transform="translate(387 620)">
      <path d="M0 -17L14.7 -8.5L14.7 8.5L0 17L-14.7 8.5L-14.7 -8.5Z" stroke="#297EA6" fill="none" stroke-width="0.3"></path>
    </g>
    <g transform="translate(369 319)">
      <path d="M0 -11L9.5 -5.5L9.5 5.5L0 11L-9.5 5.5L-9.5 -5.5Z" stroke="#297EA6" fill="none" stroke-width="0.3"></path>
    </g>
    <g transform="translate(216 212)">
      <path d="M0 -15L13 -7.5L13 7.5L0 15L-13 7.5L-13 -7.5Z" stroke="#297EA6" fill="none" stroke-width="0.3"></path>
    </g>
    <g transform="translate(36 288)">
      <path d="M0 -20L17.3 -10L17.3 10L0 20L-17.3 10L-17.3 -10Z" stroke="#297EA6" fill="none" stroke-width="0.3"></path>
    </g>
    <g transform="translate(10 863)">
      <path d="M0 -15L13 -7.5L13 7.5L0 15L-13 7.5L-13 -7.5Z" stroke="#297EA6" fill="none" stroke-width="0.3"></path>
    </g>
    <g transform="translate(148 531)">
      <path d="M0 -16L13.9 -8L13.9 8L0 16L-13.9 8L-13.9 -8Z" stroke="#297EA6" fill="none" stroke-width="0.3"></path>
    </g>
    <g transform="translate(463 827)">
      <path d="M0 -15L13 -7.5L13 7.5L0 15L-13 7.5L-13 -7.5Z" stroke="#297EA6" fill="none" stroke-width="0.3"></path>
    </g>
    <g transform="translate(494 676)">
      <path d="M0 -16L13.9 -8L13.9 8L0 16L-13.9 8L-13.9 -8Z" stroke="#297EA6" fill="none" stroke-width="0.3"></path>
    </g>
    <g transform="translate(155 244)">
      <path d="M0 -16L13.9 -8L13.9 8L0 16L-13.9 8L-13.9 -8Z" stroke="#297EA6" fill="none" stroke-width="0.3"></path>
    </g>
    <g transform="translate(211 317)">
      <path d="M0 -19L16.5 -9.5L16.5 9.5L0 19L-16.5 9.5L-16.5 -9.5Z" stroke="#297EA6" fill="none" stroke-width="0.3"></path>
    </g>
    <g transform="translate(89 238)">
      <path d="M0 -18L15.6 -9L15.6 9L0 18L-15.6 9L-15.6 -9Z" stroke="#297EA6" fill="none" stroke-width="0.3"></path>
    </g>
    <g transform="translate(49 672)">
      <path d="M0 -16L13.9 -8L13.9 8L0 16L-13.9 8L-13.9 -8Z" stroke="#297EA6" fill="none" stroke-width="0.3"></path>
    </g>
    <g transform="translate(449 431)">
      <path d="M0 -15L13 -7.5L13 7.5L0 15L-13 7.5L-13 -7.5Z" stroke="#297EA6" fill="none" stroke-width="0.3"></path>
    </g>
    <g transform="translate(459 54)">
      <path d="M0 -18L15.6 -9L15.6 9L0 18L-15.6 9L-15.6 -9Z" stroke="#297EA6" fill="none" stroke-width="0.3"></path>
    </g>
  </g>
</svg>